<?xml version="1.0" encoding="UTF-8"?>
<svg xmlns="http://www.w3.org/2000/svg" width="13" height="13" viewBox="0 0 29 29"><path d="M3.253 3.254C-.464 6.94-.485 12.945 3.203 16.66c3.483 3.506 9.026 3.723 12.763.633L16 17.26c.715-.625.979-.869 1.365-1.398 2.945-3.71 2.715-9.12-.707-12.564C12.969-.418 6.966-.44 3.253 3.254zm11.724 1.713A7.112 7.112 0 0 1 4.885 14.99C2.117 12.206 2.139 7.7 4.922 4.934a7.106 7.106 0 0 1 10.055.033z" fill="#999"/><path d="M25.988 28.216l2.587-2.389-11.2-10.329-1.725 1.722z" fill="#999"/></svg>